<mxfile host="65bd71144e">
    <diagram id="R8WRuxuWmdQbU9DlL5-6" name="Page-1">
        <mxGraphModel dx="931" dy="771" grid="1" gridSize="10" guides="1" tooltips="1" connect="1" arrows="1" fold="1" page="1" pageScale="1" pageWidth="850" pageHeight="1100" math="0" shadow="0">
            <root>
                <mxCell id="0"/>
                <mxCell id="1" parent="0"/>
                <mxCell id="4" value="" style="edgeStyle=none;html=1;" parent="1" source="2" edge="1">
                    <mxGeometry relative="1" as="geometry">
                        <mxPoint x="200" y="450" as="targetPoint"/>
                    </mxGeometry>
                </mxCell>
                <mxCell id="8" value="Intiial server response" style="swimlane;fillColor=#fa6800;fontColor=#000000;strokeColor=#C73500;" parent="1" vertex="1">
                    <mxGeometry x="40" y="240" width="320" height="320" as="geometry"/>
                </mxCell>
                <mxCell id="10" value="The server generates a&lt;br&gt;new GUID and returns it" style="rounded=1;whiteSpace=wrap;html=1;absoluteArcSize=1;arcSize=14;strokeWidth=2;fillColor=#fa6800;fontColor=#000000;strokeColor=#C73500;" parent="8" vertex="1">
                    <mxGeometry x="40" y="200" width="240" height="80" as="geometry"/>
                </mxCell>
                <mxCell id="2" value="The server receives a payload with an empty guid field" style="strokeWidth=2;html=1;shape=mxgraph.flowchart.start_1;whiteSpace=wrap;fillColor=#60a917;fontColor=#ffffff;strokeColor=#2D7600;" parent="8" vertex="1">
                    <mxGeometry x="40" y="40" width="240" height="80" as="geometry"/>
                </mxCell>
                <mxCell id="11" value="" style="edgeStyle=none;html=1;entryX=0.5;entryY=0;entryDx=0;entryDy=0;fillColor=#60a917;strokeColor=#2D7600;" parent="8" source="2" target="10" edge="1">
                    <mxGeometry relative="1" as="geometry">
                        <mxPoint x="160" y="210" as="targetPoint"/>
                    </mxGeometry>
                </mxCell>
                <mxCell id="9" value="For each empty GUID" style="swimlane;fillColor=#fa6800;fontColor=#000000;strokeColor=#C73500;" parent="1" vertex="1">
                    <mxGeometry x="400" y="40" width="440" height="680" as="geometry"/>
                </mxCell>
                <mxCell id="16" value="The server fetches the &lt;br&gt;RSS feed and parses it" style="rounded=1;whiteSpace=wrap;html=1;absoluteArcSize=1;arcSize=14;strokeWidth=2;fillColor=#fa6800;fontColor=#000000;strokeColor=#C73500;" parent="9" vertex="1">
                    <mxGeometry x="100" y="40" width="240" height="80" as="geometry"/>
                </mxCell>
                <mxCell id="18" value="Does the RSS feed contain a GUID?" style="rhombus;whiteSpace=wrap;html=1;fillColor=#1ba1e2;strokeColor=#006EAF;fontColor=#ffffff;rounded=1;arcSize=14;strokeWidth=2;" parent="9" vertex="1">
                    <mxGeometry x="125" y="180" width="190" height="190" as="geometry"/>
                </mxCell>
                <mxCell id="19" value="The server keeps&lt;br&gt;the generated GUID" style="rounded=1;whiteSpace=wrap;html=1;fillColor=#60a917;strokeColor=#2D7600;fontColor=#ffffff;arcSize=14;strokeWidth=2;" parent="9" vertex="1">
                    <mxGeometry x="40" y="440" width="160" height="40" as="geometry"/>
                </mxCell>
                <mxCell id="21" value="" style="endArrow=classic;html=1;exitX=0.5;exitY=1;exitDx=0;exitDy=0;entryX=0.5;entryY=0;entryDx=0;entryDy=0;fillColor=#60a917;strokeColor=#2D7600;" parent="9" source="16" target="18" edge="1">
                    <mxGeometry width="50" height="50" relative="1" as="geometry">
                        <mxPoint x="30" y="320" as="sourcePoint"/>
                        <mxPoint x="80" y="270" as="targetPoint"/>
                    </mxGeometry>
                </mxCell>
                <mxCell id="25" value="" style="edgeStyle=none;html=1;fillColor=#60a917;strokeColor=#2D7600;entryX=0.5;entryY=0;entryDx=0;entryDy=0;" parent="9" source="22" target="24" edge="1">
                    <mxGeometry relative="1" as="geometry">
                        <mxPoint x="320" y="550" as="targetPoint"/>
                    </mxGeometry>
                </mxCell>
                <mxCell id="22" value="The server creates a subscription with the new GUID" style="rounded=1;whiteSpace=wrap;html=1;fillColor=#fa6800;strokeColor=#C73500;fontColor=#000000;arcSize=14;strokeWidth=2;" parent="9" vertex="1">
                    <mxGeometry x="240" y="440" width="160" height="80" as="geometry"/>
                </mxCell>
                <mxCell id="24" value="The server updates the&lt;br&gt;existing entry's new_guid&lt;br&gt;and guid_changed fields" style="rounded=1;whiteSpace=wrap;html=1;fillColor=#60a917;strokeColor=#2D7600;fontColor=#ffffff;arcSize=14;strokeWidth=2;" parent="9" vertex="1">
                    <mxGeometry x="240" y="560" width="160" height="80" as="geometry"/>
                </mxCell>
                <mxCell id="26" value="" style="endArrow=classic;html=1;fillColor=#60a917;strokeColor=#2D7600;entryX=0.5;entryY=0;entryDx=0;entryDy=0;" edge="1" parent="9" source="18" target="19">
                    <mxGeometry relative="1" as="geometry">
                        <mxPoint x="-30" y="360" as="sourcePoint"/>
                        <mxPoint x="70" y="360" as="targetPoint"/>
                    </mxGeometry>
                </mxCell>
                <mxCell id="27" value="No" style="edgeLabel;resizable=0;html=1;align=center;verticalAlign=middle;" connectable="0" vertex="1" parent="26">
                    <mxGeometry relative="1" as="geometry"/>
                </mxCell>
                <mxCell id="28" value="" style="endArrow=classic;html=1;fillColor=#60a917;strokeColor=#2D7600;entryX=0.5;entryY=0;entryDx=0;entryDy=0;" edge="1" parent="9" source="18" target="22">
                    <mxGeometry relative="1" as="geometry">
                        <mxPoint x="-20" y="360" as="sourcePoint"/>
                        <mxPoint x="70" y="360" as="targetPoint"/>
                    </mxGeometry>
                </mxCell>
                <mxCell id="29" value="Yes" style="edgeLabel;resizable=0;html=1;align=center;verticalAlign=middle;" connectable="0" vertex="1" parent="28">
                    <mxGeometry relative="1" as="geometry"/>
                </mxCell>
            </root>
        </mxGraphModel>
    </diagram>
</mxfile>
